<svg width="24" height="24" viewBox="0 0 24 24" fill="none" xmlns="http://www.w3.org/2000/svg">
<path d="M20.3902 8.77995C19.3115 7.50297 17.7956 6.7619 16.3639 6.7619C14.4739 6.7619 13.6744 7.61612 12.3613 7.61612C11.0073 7.61612 9.9787 6.76439 8.3442 6.76439C6.73869 6.76439 5.02912 7.69073 3.94517 9.27483C2.42131 11.5055 2.68209 15.6995 5.15161 19.2718C6.03537 20.55 7.21547 21.9874 8.75908 21.9999C10.1328 22.0123 10.52 21.168 12.381 21.1593C14.2421 21.1494 14.5951 22.0111 15.9661 21.9974C17.5111 21.9862 18.7557 20.3934 19.6395 19.1152C20.273 18.1988 20.5087 17.7375 21 16.7029C17.4268 15.4185 16.8538 10.6214 20.3902 8.77995Z" fill="black"/>
<path d="M15.8553 2C14.7358 2.07375 13.4272 2.75625 12.6646 3.64499C11.969 4.45124 11.3968 5.64873 11.6199 6.81247C12.8431 6.84872 14.1071 6.14998 14.8394 5.24623C15.5246 4.40499 16.043 3.21499 15.8553 2Z" fill="black"/>
</svg>
