<svg width="16" height="18" viewBox="0 0 16 18" fill="none" xmlns="http://www.w3.org/2000/svg">
<path d="M6.77235 1.05179C6.76073 1.1234 6.75537 1.19586 6.75631 1.26837L6.75631 13.6143L6.63117 13.3451C6.50669 13.0819 6.33728 12.8425 6.13059 12.6376L2.67036 9.17552C2.23533 8.71956 1.5355 8.64294 1.01221 8.99397C0.454572 9.40251 0.333495 10.186 0.741817 10.744C0.774823 10.789 0.810802 10.8319 0.849518 10.8721L7.10672 17.1327C7.59517 17.622 8.38753 17.6224 8.87653 17.1337C8.87684 17.1334 8.87719 17.133 8.8775 17.1327L15.1347 10.8721C15.6227 10.3825 15.6216 9.5897 15.1322 9.10137C15.0937 9.06295 15.0527 9.02707 15.0096 8.99397C14.4863 8.64294 13.7864 8.71956 13.3514 9.17552L9.88491 12.6314C9.70111 12.8151 9.54698 13.0263 9.42814 13.2574L9.25919 13.6331L9.25919 1.33727C9.28293 0.697638 8.83636 0.136454 8.20798 0.0162907C7.52575 -0.0944042 6.88302 0.369192 6.77235 1.05179Z" fill="#39AAB4"/>
</svg>
