<svg width="22" height="18" viewBox="0 0 22 18" fill="none" xmlns="http://www.w3.org/2000/svg">
<path d="M1.46215 10.4732C1.54808 10.4871 1.63504 10.4936 1.72205 10.4924L16.5371 10.4924L16.2141 10.6426C15.8983 10.792 15.6111 10.9953 15.3652 11.2433L11.2106 15.3956C10.6635 15.9176 10.5715 16.7574 10.9928 17.3854C11.483 18.0545 12.4232 18.1998 13.0928 17.7098C13.1468 17.6702 13.1983 17.627 13.2466 17.5806L20.7593 10.0719C21.3464 9.4858 21.3469 8.53497 20.7604 7.94817C20.7601 7.94779 20.7596 7.94737 20.7593 7.947L13.2466 0.438359C12.659 -0.147268 11.7076 -0.145953 11.1217 0.441316C11.0755 0.48754 11.0325 0.536723 10.9928 0.588532C10.5715 1.21649 10.6635 2.05628 11.2106 2.57832L15.3576 6.73811C15.5781 6.95867 15.8316 7.14362 16.1089 7.28624L16.5597 7.48897L1.80473 7.48897C1.03717 7.46049 0.36375 7.99637 0.219554 8.75042C0.0867188 9.5691 0.643035 10.3404 1.46215 10.4732Z" fill="#B0B0B0"/>
</svg>
