<svg width="610" height="550" viewBox="0 0 610 550" fill="none" xmlns="http://www.w3.org/2000/svg">
<path d="M277.38 275L241.547 254.309L205.713 275V316.382L241.547 337.073L277.38 316.382V275Z" fill="#D2E8EA"/>
<path d="M277.38 233.618L241.547 212.927L205.713 233.618V275L241.547 295.691L277.38 275V233.618Z" stroke="#F4F4F4" stroke-width="2" stroke-miterlimit="10"/>
<path d="M398.233 430.1L443.338 508.244H353.128L398.233 430.1Z" fill="#D2E8EA"/>
<path d="M631.997 502.7L616.786 484.726L601.575 502.7L586.364 484.726L571.153 502.7L555.931 484.726L540.709 502.7" stroke="#F4F4F4" stroke-width="4" stroke-miterlimit="10"/>
<path d="M631.997 526.9L616.786 508.926L601.575 526.9L586.364 508.926L571.153 526.9L555.931 508.926L540.709 526.9" stroke="#F4F4F4" stroke-width="4" stroke-miterlimit="10"/>
<path d="M149.708 355.3V369.6M142.559 362.45H156.858H142.559Z" stroke="#D2E8EA" stroke-miterlimit="10"/>
<path d="M149.708 390.5V404.8M142.559 397.65H156.858H142.559Z" stroke="#D2E8EA" stroke-miterlimit="10"/>
<path d="M149.708 424.6V438.9M142.559 431.75H156.858H142.559Z" stroke="#D2E8EA" stroke-miterlimit="10"/>
<path d="M149.708 355.3V369.6M142.559 362.45H156.858H142.559Z" stroke="#F4F4F4" stroke-width="2" stroke-miterlimit="10"/>
<path d="M149.708 390.5V404.8M142.559 397.65H156.858H142.559Z" stroke="#F4F4F4" stroke-width="2" stroke-miterlimit="10"/>
<path d="M149.708 424.6V438.9M142.559 431.75H156.858H142.559Z" stroke="#F4F4F4" stroke-width="2" stroke-miterlimit="10"/>
<path d="M116.713 355.3V369.6M109.564 362.45H123.862H109.564Z" stroke="#D2E8EA" stroke-miterlimit="10"/>
<path d="M116.713 390.5V404.8M109.564 397.65H123.862H109.564Z" stroke="#D2E8EA" stroke-miterlimit="10"/>
<path d="M116.713 424.6V438.9M109.564 431.75H123.862H109.564Z" stroke="#D2E8EA" stroke-miterlimit="10"/>
<path d="M116.713 355.3V369.6M109.564 362.45H123.862H109.564Z" stroke="#F4F4F4" stroke-width="2" stroke-miterlimit="10"/>
<path d="M116.713 390.5V404.8M109.564 397.65H123.862H109.564Z" stroke="#F4F4F4" stroke-width="2" stroke-miterlimit="10"/>
<path d="M116.713 424.6V438.9M109.564 431.75H123.862H109.564Z" stroke="#F4F4F4" stroke-width="2" stroke-miterlimit="10"/>
<path d="M83.7168 390.5V404.8M76.5676 397.65H90.8659H76.5676Z" stroke="#D2E8EA" stroke-miterlimit="10"/>
<path d="M83.7168 424.6V438.9M76.5676 431.75H90.8659H76.5676Z" stroke="#D2E8EA" stroke-miterlimit="10"/>
<path d="M83.7168 390.5V404.8M76.5676 397.65H90.8659H76.5676Z" stroke="#F4F4F4" stroke-width="2" stroke-miterlimit="10"/>
<path d="M83.7168 424.6V438.9M76.5676 431.75H90.8659H76.5676Z" stroke="#F4F4F4" stroke-width="2" stroke-miterlimit="10"/>
<path d="M50.721 390.5V404.8M43.5719 397.65H57.8701H43.5719Z" stroke="#D2E8EA" stroke-miterlimit="10"/>
<path d="M50.721 424.6V438.9M43.5719 431.75H57.8701H43.5719Z" stroke="#D2E8EA" stroke-miterlimit="10"/>
<path d="M50.721 390.5V404.8M43.5719 397.65H57.8701H43.5719Z" stroke="#F4F4F4" stroke-width="2" stroke-miterlimit="10"/>
<path d="M50.721 424.6V438.9M43.5719 431.75H57.8701H43.5719Z" stroke="#F4F4F4" stroke-width="2" stroke-miterlimit="10"/>
<path d="M17.7251 390.5V404.8M10.576 397.65H24.8743H10.576Z" stroke="#D2E8EA" stroke-miterlimit="10"/>
<path d="M17.7251 424.6V438.9M10.576 431.75H24.8743H10.576Z" stroke="#D2E8EA" stroke-miterlimit="10"/>
<path d="M17.7251 390.5V404.8M10.576 397.65H24.8743H10.576Z" stroke="#F4F4F4" stroke-width="2" stroke-miterlimit="10"/>
<path d="M17.7251 424.6V438.9M10.576 431.75H24.8743H10.576Z" stroke="#F4F4F4" stroke-width="2" stroke-miterlimit="10"/>
<path d="M569.569 84.447L631.997 84.447V22.0111L569.569 22.0111V84.447Z" stroke="#F4F4F4" stroke-width="2" stroke-miterlimit="10"/>
<path d="M538.355 115.665L600.783 115.665V53.229L538.355 53.229V115.665Z" fill="#D2E8EA"/>
<path d="M351.951 151.767C354.392 151.767 356.383 153.747 356.383 156.2C356.383 158.653 354.403 160.633 351.951 160.633C349.509 160.633 347.518 158.653 347.518 156.2C347.518 153.747 349.498 151.767 351.951 151.767Z" fill="#D2E8EA"/>
<path d="M351.951 128.007C354.392 128.007 356.383 129.987 356.383 132.44C356.383 134.882 354.403 136.873 351.951 136.873C349.509 136.873 347.518 134.893 347.518 132.44C347.518 129.998 349.498 128.007 351.951 128.007Z" fill="#D2E8EA"/>
<path d="M351.951 104.247C354.392 104.247 356.383 106.227 356.383 108.68C356.383 111.133 354.403 113.113 351.951 113.113C349.509 113.113 347.518 111.133 347.518 108.68C347.518 106.227 349.498 104.247 351.951 104.247Z" fill="#D2E8EA"/>
<path d="M351.951 80.498C354.392 80.498 356.383 82.478 356.383 84.931C356.383 87.384 354.403 89.364 351.951 89.364C349.509 89.364 347.518 87.384 347.518 84.931C347.518 82.478 349.498 80.498 351.951 80.498Z" fill="#F4F4F4"/>
<path d="M351.951 56.738C354.392 56.738 356.383 58.718 356.383 61.171C356.383 63.613 354.403 65.604 351.951 65.604C349.509 65.604 347.518 63.624 347.518 61.171C347.518 58.718 349.498 56.738 351.951 56.738Z" fill="#D2E8EA"/>
<path d="M351.951 32.978C354.392 32.978 356.383 34.958 356.383 37.411C356.383 39.864 354.403 41.844 351.951 41.844C349.509 41.844 347.518 39.864 347.518 37.411C347.518 34.958 349.498 32.978 351.951 32.978Z" fill="#D2E8EA"/>
<path d="M351.951 9.21802C354.392 9.21802 356.383 11.198 356.383 13.651C356.383 16.104 354.403 18.084 351.951 18.084C349.509 18.084 347.518 16.104 347.518 13.651C347.518 11.198 349.498 9.21802 351.951 9.21802Z" fill="#F4F4F4"/>
<path d="M370.296 151.767C367.848 151.767 365.864 153.752 365.864 156.2C365.864 158.648 367.848 160.633 370.296 160.633C372.744 160.633 374.729 158.648 374.729 156.2C374.729 153.752 372.744 151.767 370.296 151.767Z" fill="#D2E8EA"/>
<path d="M370.296 128.007C372.738 128.007 374.729 129.987 374.729 132.44C374.729 134.882 372.749 136.873 370.296 136.873C367.855 136.873 365.864 134.893 365.864 132.44C365.864 129.998 367.855 128.007 370.296 128.007Z" stroke="#D2E8EA" stroke-miterlimit="10"/>
<path d="M370.296 104.247C367.848 104.247 365.864 106.232 365.864 108.68C365.864 111.128 367.848 113.113 370.296 113.113C372.744 113.113 374.729 111.128 374.729 108.68C374.729 106.232 372.744 104.247 370.296 104.247Z" fill="#D2E8EA"/>
<path d="M370.296 80.487C367.848 80.487 365.864 82.4717 365.864 84.92C365.864 87.3683 367.848 89.353 370.296 89.353C372.744 89.353 374.729 87.3683 374.729 84.92C374.729 82.4717 372.744 80.487 370.296 80.487Z" fill="#D2E8EA"/>
<path d="M370.296 56.738C372.738 56.738 374.729 58.718 374.729 61.171C374.729 63.613 372.749 65.604 370.296 65.604C367.855 65.604 365.864 63.624 365.864 61.171C365.864 58.718 367.855 56.738 370.296 56.738Z" fill="#D2E8EA"/>
<path d="M370.296 32.967C367.848 32.967 365.864 34.9517 365.864 37.4C365.864 39.8483 367.848 41.833 370.296 41.833C372.744 41.833 374.729 39.8483 374.729 37.4C374.729 34.9517 372.744 32.967 370.296 32.967Z" stroke="#D2E8EA" stroke-miterlimit="10"/>
<path d="M370.296 9.20703C367.848 9.20703 365.864 11.1917 365.864 13.64C365.864 16.0883 367.848 18.073 370.296 18.073C372.744 18.073 374.729 16.0883 374.729 13.64C374.729 11.1917 372.744 9.20703 370.296 9.20703Z" fill="#D2E8EA"/>
<path d="M388.653 151.767C386.205 151.767 384.221 153.752 384.221 156.2C384.221 158.648 386.205 160.633 388.653 160.633C391.101 160.633 393.085 158.648 393.085 156.2C393.085 153.752 391.101 151.767 388.653 151.767Z" fill="#D2E8EA"/>
<path d="M388.653 128.007C391.095 128.007 393.085 129.987 393.085 132.44C393.085 134.882 391.106 136.873 388.653 136.873C386.2 136.873 384.221 134.893 384.221 132.44C384.221 129.998 386.2 128.007 388.653 128.007Z" fill="#D2E8EA"/>
<path d="M388.653 104.247C386.205 104.247 384.221 106.232 384.221 108.68C384.221 111.128 386.205 113.113 388.653 113.113C391.101 113.113 393.085 111.128 393.085 108.68C393.085 106.232 391.101 104.247 388.653 104.247Z" fill="#D2E8EA"/>
<path d="M388.653 80.487C386.205 80.487 384.221 82.4717 384.221 84.92C384.221 87.3683 386.205 89.353 388.653 89.353C391.101 89.353 393.085 87.3683 393.085 84.92C393.085 82.4717 391.101 80.487 388.653 80.487Z" fill="#D2E8EA"/>
<path d="M388.653 56.738C391.095 56.738 393.085 58.718 393.085 61.171C393.085 63.613 391.106 65.604 388.653 65.604C386.2 65.604 384.221 63.624 384.221 61.171C384.221 58.718 386.2 56.738 388.653 56.738Z" fill="#F4F4F4"/>
<path d="M388.653 32.967C386.205 32.967 384.221 34.9517 384.221 37.4C384.221 39.8483 386.205 41.833 388.653 41.833C391.101 41.833 393.085 39.8483 393.085 37.4C393.085 34.9517 391.101 32.967 388.653 32.967Z" fill="#D2E8EA"/>
<path d="M388.653 9.20703C386.205 9.20703 384.221 11.1917 384.221 13.64C384.221 16.0883 386.205 18.073 388.653 18.073C391.101 18.073 393.085 16.0883 393.085 13.64C393.085 11.1917 391.101 9.20703 388.653 9.20703Z" fill="#D2E8EA"/>
<path d="M407.01 151.767C404.562 151.767 402.577 153.752 402.577 156.2C402.577 158.648 404.562 160.633 407.01 160.633C409.458 160.633 411.442 158.648 411.442 156.2C411.442 153.752 409.458 151.767 407.01 151.767Z" fill="#D2E8EA"/>
<path d="M407.01 128.007C409.451 128.007 411.442 129.987 411.442 132.44C411.442 134.882 409.462 136.873 407.01 136.873C404.557 136.873 402.577 134.893 402.577 132.44C402.577 129.998 404.557 128.007 407.01 128.007Z" fill="#F4F4F4"/>
<path d="M407.01 104.247C404.562 104.247 402.577 106.232 402.577 108.68C402.577 111.128 404.562 113.113 407.01 113.113C409.458 113.113 411.442 111.128 411.442 108.68C411.442 106.232 409.458 104.247 407.01 104.247Z" fill="#D2E8EA"/>
<path d="M407.01 80.487C404.562 80.487 402.577 82.4717 402.577 84.92C402.577 87.3683 404.562 89.353 407.01 89.353C409.458 89.353 411.442 87.3683 411.442 84.92C411.442 82.4717 409.458 80.487 407.01 80.487Z" stroke="#D2E8EA" stroke-miterlimit="10"/>
<path d="M407.01 56.738C409.451 56.738 411.442 58.718 411.442 61.171C411.442 63.613 409.462 65.604 407.01 65.604C404.557 65.604 402.577 63.624 402.577 61.171C402.577 58.718 404.557 56.738 407.01 56.738Z" fill="#D2E8EA"/>
<path d="M407.01 32.967C404.562 32.967 402.577 34.9517 402.577 37.4C402.577 39.8483 404.562 41.833 407.01 41.833C409.458 41.833 411.442 39.8483 411.442 37.4C411.442 34.9517 409.458 32.967 407.01 32.967Z" fill="#D2E8EA"/>
<path d="M407.01 9.20703C404.562 9.20703 402.577 11.1917 402.577 13.64C402.577 16.0883 404.562 18.073 407.01 18.073C409.458 18.073 411.442 16.0883 411.442 13.64C411.442 11.1917 409.458 9.20703 407.01 9.20703Z" fill="#D2E8EA"/>
<path d="M425.355 151.767C422.907 151.767 420.923 153.752 420.923 156.2C420.923 158.648 422.907 160.633 425.355 160.633C427.803 160.633 429.788 158.648 429.788 156.2C429.788 153.752 427.803 151.767 425.355 151.767Z" stroke="#D2E8EA" stroke-miterlimit="10"/>
<path d="M425.355 128.007C427.797 128.007 429.788 129.987 429.788 132.44C429.788 134.882 427.808 136.873 425.355 136.873C422.914 136.873 420.923 134.893 420.923 132.44C420.923 129.998 422.914 128.007 425.355 128.007Z" fill="#D2E8EA"/>
<path d="M425.355 104.247C422.907 104.247 420.923 106.232 420.923 108.68C420.923 111.128 422.907 113.113 425.355 113.113C427.803 113.113 429.788 111.128 429.788 108.68C429.788 106.232 427.803 104.247 425.355 104.247Z" fill="#D2E8EA"/>
<path d="M425.355 80.487C422.907 80.487 420.923 82.4717 420.923 84.92C420.923 87.3683 422.907 89.353 425.355 89.353C427.803 89.353 429.788 87.3683 429.788 84.92C429.788 82.4717 427.803 80.487 425.355 80.487Z" fill="#D2E8EA"/>
<path d="M425.355 56.738C427.797 56.738 429.788 58.718 429.788 61.171C429.788 63.613 427.808 65.604 425.355 65.604C422.914 65.604 420.923 63.624 420.923 61.171C420.923 58.718 422.914 56.738 425.355 56.738Z" fill="#D2E8EA"/>
<path d="M425.355 32.967C422.907 32.967 420.923 34.9517 420.923 37.4C420.923 39.8483 422.907 41.833 425.355 41.833C427.803 41.833 429.788 39.8483 429.788 37.4C429.788 34.9517 427.803 32.967 425.355 32.967Z" fill="#D2E8EA"/>
<path d="M425.355 9.20703C422.907 9.20703 420.923 11.1917 420.923 13.64C420.923 16.0883 422.907 18.073 425.355 18.073C427.803 18.073 429.788 16.0883 429.788 13.64C429.788 11.1917 427.803 9.20703 425.355 9.20703Z" fill="#D2E8EA"/>
<path d="M44.7487 360.734C42.3007 360.734 40.3162 362.719 40.3162 365.167C40.3162 367.615 42.3007 369.6 44.7487 369.6C47.1967 369.6 49.1811 367.615 49.1811 365.167C49.1811 362.719 47.1967 360.734 44.7487 360.734Z" fill="#D2E8EA"/>
<path d="M16.5704 365.167C16.5704 362.725 18.5501 360.734 21.0027 360.734C23.4444 360.734 25.4352 362.714 25.4352 365.167C25.4352 367.609 23.4554 369.6 21.0027 369.6C18.5501 369.6 16.5704 367.62 16.5704 365.167Z" fill="#D2E8EA"/>
<path d="M44.7488 342.386C42.3008 342.386 40.3163 344.371 40.3163 346.819C40.3163 349.267 42.3008 351.252 44.7488 351.252C47.1967 351.252 49.1812 349.267 49.1812 346.819C49.1812 344.371 47.1967 342.386 44.7488 342.386Z" fill="#D2E8EA"/>
<path d="M16.5704 346.819C16.5704 344.377 18.5501 342.386 21.0027 342.386C23.4444 342.386 25.4352 344.366 25.4352 346.819C25.4352 349.272 23.4554 351.252 21.0027 351.252C18.5501 351.241 16.5704 349.261 16.5704 346.819Z" stroke="#D2E8EA" stroke-miterlimit="10"/>
<path d="M44.7488 324.027C42.3008 324.027 40.3163 326.012 40.3163 328.46C40.3163 330.908 42.3008 332.893 44.7488 332.893C47.1967 332.893 49.1812 330.908 49.1812 328.46C49.1812 326.012 47.1967 324.027 44.7488 324.027Z" fill="#F4F4F4"/>
<path d="M16.5704 328.46C16.5704 326.018 18.5501 324.027 21.0027 324.027C23.4444 324.027 25.4352 326.007 25.4352 328.46C25.4352 330.913 23.4554 332.893 21.0027 332.893C18.5501 332.893 16.5704 330.902 16.5704 328.46Z" stroke="#D2E8EA" stroke-miterlimit="10"/>
<path d="M44.7488 305.668C42.3008 305.668 40.3163 307.653 40.3163 310.101C40.3163 312.549 42.3008 314.534 44.7488 314.534C47.1967 314.534 49.1812 312.549 49.1812 310.101C49.1812 307.653 47.1967 305.668 44.7488 305.668Z" fill="#F4F4F4"/>
<path d="M16.5704 310.101C16.5704 307.659 18.5501 305.668 21.0027 305.668C23.4444 305.668 25.4352 307.648 25.4352 310.101C25.4352 312.543 23.4554 314.534 21.0027 314.534C18.5501 314.534 16.5704 312.554 16.5704 310.101Z" stroke="#D2E8EA" stroke-miterlimit="10"/>
<path d="M40.3273 291.742C40.3273 289.3 42.3071 287.309 44.7597 287.309C47.2014 287.309 49.1921 289.289 49.1921 291.742C49.1921 294.184 47.2124 296.175 44.7597 296.175C42.3071 296.175 40.3273 294.195 40.3273 291.742Z" fill="#F4F4F4"/>
<path d="M16.5704 291.742C16.5704 289.3 18.5501 287.309 21.0027 287.309C23.4444 287.309 25.4352 289.289 25.4352 291.742C25.4352 294.184 23.4554 296.175 21.0027 296.175C18.5501 296.175 16.5704 294.195 16.5704 291.742Z" stroke="#D2E8EA" stroke-miterlimit="10"/>
<path d="M40.3273 273.394C40.3273 270.952 42.3071 268.961 44.7597 268.961C47.2014 268.961 49.1921 270.941 49.1921 273.394C49.1921 275.836 47.2124 277.827 44.7597 277.827C42.3071 277.827 40.3273 275.836 40.3273 273.394Z" fill="#D2E8EA"/>
<path d="M16.5704 273.394C16.5704 270.952 18.5501 268.961 21.0027 268.961C23.4444 268.961 25.4352 270.941 25.4352 273.394C25.4352 275.836 23.4554 277.827 21.0027 277.827C18.5501 277.827 16.5704 275.836 16.5704 273.394Z" stroke="#D2E8EA" stroke-miterlimit="10"/>
<path d="M40.3273 255.035C40.3273 252.593 42.3071 250.602 44.7597 250.602C47.2014 250.602 49.1921 252.582 49.1921 255.035C49.1921 257.477 47.2124 259.468 44.7597 259.468C42.3071 259.468 40.3273 257.488 40.3273 255.035Z" fill="#D2E8EA"/>
<path d="M16.5704 255.035C16.5704 252.593 18.5501 250.602 21.0027 250.602C23.4444 250.602 25.4352 252.582 25.4352 255.035C25.4352 257.477 23.4554 259.468 21.0027 259.468C18.5501 259.468 16.5704 257.488 16.5704 255.035Z" fill="#D2E8EA"/>
<path d="M253.513 194.997H259.375V170.984H253.513V194.997Z" fill="#F4F4F4"/>
<path d="M238.621 194.997H244.483V170.984H238.621V194.997Z" fill="#F4F4F4"/>
<path d="M223.729 194.997H229.591V170.984H223.729V194.997Z" fill="#F4F4F4"/>
<path d="M253.513 160.798H259.375V136.785H253.513V160.798Z" fill="#F4F4F4"/>
<path d="M238.621 160.798H244.483V136.785H238.621V160.798Z" fill="#F4F4F4"/>
<path d="M238.621 126.61H244.483V102.597H238.621V126.61Z" fill="#F4F4F4"/>
<path d="M223.729 126.61H229.591V102.597H223.729V126.61Z" fill="#F4F4F4"/>
<path d="M253.513 92.411H259.375V68.398H253.513V92.411Z" fill="#F4F4F4"/>
<path d="M223.729 92.411H229.591V68.398H223.729V92.411Z" fill="#F4F4F4"/>
<path d="M253.513 58.212H259.375V34.199H253.513V58.212Z" fill="#F4F4F4"/>
<path d="M238.621 58.212H244.483V34.199H238.621V58.212Z" fill="#F4F4F4"/>
<path d="M253.513 24.0129H259.375V0H253.513V24.0129Z" fill="#F4F4F4"/>
<path d="M238.621 24.0129H244.483V0H238.621V24.0129Z" fill="#F4F4F4"/>
<path d="M223.729 24.0129H229.591V0H223.729V24.0129Z" fill="#F4F4F4"/>
<path d="M229.582 355.003H223.72V379.016H229.582V355.003Z" fill="#F4F4F4"/>
<path d="M244.472 355.003H238.61V379.016H244.472V355.003Z" fill="#F4F4F4"/>
<path d="M259.362 355.003H253.5V379.016H259.362V355.003Z" fill="#F4F4F4"/>
<path d="M229.582 389.197H223.72V413.21H229.582V389.197Z" fill="#F4F4F4"/>
<path d="M244.472 389.197H238.61V413.21H244.472V389.197Z" fill="#F4F4F4"/>
<path d="M244.472 423.391H238.61V447.404H244.472V423.391Z" fill="#F4F4F4"/>
<path d="M259.362 423.391H253.5V447.404H259.362V423.391Z" fill="#F4F4F4"/>
<path d="M229.582 457.596H223.72V481.609H229.582V457.596Z" fill="#F4F4F4"/>
<path d="M259.362 457.596H253.5V481.609H259.362V457.596Z" fill="#F4F4F4"/>
<path d="M229.582 491.79H223.72V515.803H229.582V491.79Z" fill="#F4F4F4"/>
<path d="M244.472 491.79H238.61V515.803H244.472V491.79Z" fill="#F4F4F4"/>
<path d="M229.582 525.984H223.72V549.997H229.582V525.984Z" fill="#F4F4F4"/>
<path d="M244.472 525.984H238.61V549.997H244.472V525.984Z" fill="#F4F4F4"/>
<path d="M259.362 525.984H253.5V549.997H259.362V525.984Z" fill="#F4F4F4"/>
<path d="M24.903 222.97L32.8746 230.943L40.8461 222.97L32.8746 214.998L24.903 222.97Z" fill="#F4F4F4"/>
<path d="M24.9054 195.373L32.877 203.345L40.8485 195.373L32.877 187.4L24.9054 195.373Z" fill="#D2E8EA"/>
<path d="M24.9078 167.775L32.8794 175.748L40.851 167.775L32.8794 159.802L24.9078 167.775Z" fill="#D2E8EA"/>
<path d="M24.9025 140.185L32.874 148.157L40.8456 140.185L32.874 132.212L24.9025 140.185Z" fill="#F4F4F4"/>
<path d="M618.832 404.173C594.668 398.684 576.641 377.069 576.641 351.252C576.641 323.334 597.715 300.344 624.815 297.319" stroke="#F4F4F4" stroke-width="3" stroke-miterlimit="10" stroke-linecap="round"/>
<path d="M616.269 420.134C584.406 413.391 560.506 385.11 560.506 351.241C560.506 314.842 588.124 284.889 623.55 281.204" stroke="#F4F4F4" stroke-width="3" stroke-miterlimit="10" stroke-linecap="round"/>
<path d="M620.977 388.322C604.6 383.944 592.534 369.006 592.534 351.241C592.534 331.749 607.063 315.645 625.893 313.192" stroke="#F4F4F4" stroke-width="3" stroke-miterlimit="10" stroke-linecap="round"/>
<path d="M623.187 372.449C614.531 369.292 608.35 360.998 608.35 351.241C608.35 340.12 616.401 330.88 626.982 329.021" stroke="#F4F4F4" stroke-width="3" stroke-miterlimit="10" stroke-linecap="round"/>
<path d="M508.813 411.774H483.274V386.232L508.813 411.774Z" fill="#D2E8EA"/>
<path d="M508.813 360.514H483.274V334.961L508.813 360.514Z" fill="#D2E8EA"/>
<path d="M508.813 386.067H483.274V360.514L508.813 386.067Z" fill="#F4F4F4"/>
<path d="M424.772 320.43L368.196 377.025" stroke="#F4F4F4" stroke-width="2" stroke-miterlimit="10"/>
<path d="M410.793 320.43L354.205 377.025" stroke="#F4F4F4" stroke-width="2" stroke-miterlimit="10"/>
<path d="M396.803 320.43L340.226 377.025" stroke="#D2E8EA" stroke-width="2" stroke-miterlimit="10"/>
<path d="M382.824 320.43L326.236 377.025" stroke="#D2E8EA" stroke-width="2" stroke-miterlimit="10"/>
<path d="M148.883 148.104L148.883 21.659" stroke="#D2E8EA" stroke-width="2" stroke-miterlimit="10"/>
<path d="M138.71 163.977L138.71 21.659" stroke="#D2E8EA" stroke-width="2" stroke-miterlimit="10"/>
<path d="M128.536 179.839L128.536 21.659" stroke="#F4F4F4" stroke-width="2" stroke-miterlimit="10"/>
<path d="M118.362 195.701L118.362 21.659" stroke="#F4F4F4" stroke-width="2" stroke-miterlimit="10"/>
<path d="M594.767 220H653.994V180.4H594.767V220Z" fill="#D2E8EA"/>
<path d="M76.5676 550H156.858V536.8H76.5676V550Z" fill="#D2E8EA"/>
<path d="M76.5676 517H156.858V503.8H76.5676V517Z" fill="#D2E8EA"/>
<path d="M128.778 253.583C116.955 253.583 107.364 263.175 107.364 275C107.364 286.825 116.955 296.417 128.778 296.417V253.583Z" fill="#D2E8EA"/>
<path d="M496.043 253.968H509.385V240.625H496.043V253.968Z" stroke="#D2E8EA" stroke-width="2" stroke-miterlimit="10"/>
<path d="M471.363 253.968H484.704V240.625H471.363V253.968Z" stroke="#D2E8EA" stroke-width="2" stroke-miterlimit="10"/>
<path d="M446.693 253.968H460.034V240.625H446.693V253.968Z" stroke="#D2E8EA" stroke-width="2" stroke-miterlimit="10"/>
<path d="M422.012 253.968H435.353V240.625H422.012V253.968Z" stroke="#D2E8EA" stroke-width="2" stroke-miterlimit="10"/>
<path d="M397.342 253.968H410.683V240.625H397.342V253.968Z" stroke="#D2E8EA" stroke-width="2" stroke-miterlimit="10"/>
<path d="M372.672 253.968H386.013V240.625H372.672V253.968Z" stroke="#D2E8EA" stroke-width="2" stroke-miterlimit="10"/>
<path d="M347.991 253.968H361.333V240.625H347.991V253.968Z" stroke="#D2E8EA" stroke-width="2" stroke-miterlimit="10"/>
<path d="M496.043 232.199H509.385V218.856H496.043V232.199Z" stroke="#D2E8EA" stroke-width="2" stroke-miterlimit="10"/>
<path d="M471.363 232.199H484.704V218.856H471.363V232.199Z" stroke="#D2E8EA" stroke-width="2" stroke-miterlimit="10"/>
<path d="M446.693 232.199H460.034V218.856H446.693V232.199Z" stroke="#D2E8EA" stroke-width="2" stroke-miterlimit="10"/>
<path d="M422.012 232.199H435.353V218.856H422.012V232.199Z" stroke="#D2E8EA" stroke-width="2" stroke-miterlimit="10"/>
<path d="M397.342 232.199H410.683V218.856H397.342V232.199Z" stroke="#D2E8EA" stroke-width="2" stroke-miterlimit="10"/>
<path d="M372.672 232.199H386.013V218.856H372.672V232.199Z" stroke="#D2E8EA" stroke-width="2" stroke-miterlimit="10"/>
<path d="M347.991 232.199H361.333V218.856H347.991V232.199Z" stroke="#D2E8EA" stroke-width="2" stroke-miterlimit="10"/>
<path d="M509.385 264.968H496.043" stroke="#D2E8EA" stroke-width="2" stroke-miterlimit="10" stroke-linecap="square"/>
<path d="M484.704 264.968H471.374" stroke="#D2E8EA" stroke-width="2" stroke-miterlimit="10" stroke-linecap="square"/>
</svg>
