<svg width="595" height="455" viewBox="0 0 595 455" fill="none" xmlns="http://www.w3.org/2000/svg">
<path d="M378.666 40.7348C378.666 37.2831 375.831 34.4849 372.333 34.4849C368.835 34.4849 366 37.2831 366 40.7348C366 44.1865 368.835 46.9846 372.333 46.9846C375.831 46.9846 378.666 44.1865 378.666 40.7348Z" fill="#D2E8EA"/>
<path d="M372.333 0.999957C375.822 0.999957 378.666 3.7914 378.666 7.24975C378.666 10.6926 375.837 13.4996 372.333 13.4996C368.844 13.4996 366 10.7081 366 7.24975C366 3.7914 368.829 0.999957 372.333 0.999957Z" fill="#D2E8EA"/>
<path d="M404.878 40.7345C404.878 37.2828 402.043 34.4846 398.545 34.4846C395.047 34.4846 392.212 37.2828 392.212 40.7345C392.212 44.1863 395.047 46.9844 398.545 46.9844C402.043 46.9844 404.878 44.1863 404.878 40.7345Z" fill="#D2E8EA"/>
<path d="M398.545 0.999957C402.034 0.999957 404.878 3.7914 404.878 7.24975C404.878 10.6926 402.049 13.4996 398.545 13.4996C395.041 13.4996 392.212 10.7081 392.212 7.24975C392.228 3.7914 395.056 0.999957 398.545 0.999957Z" stroke="#D2E8EA" stroke-miterlimit="10"/>
<path d="M431.106 40.7345C431.106 37.2828 428.27 34.4846 424.773 34.4846C421.275 34.4846 418.44 37.2828 418.44 40.7345C418.44 44.1863 421.275 46.9844 424.773 46.9844C428.27 46.9844 431.106 44.1863 431.106 40.7345Z" fill="#F4F4F4"/>
<path d="M424.773 0.999957C428.262 0.999957 431.106 3.7914 431.106 7.24975C431.106 10.6926 428.277 13.4996 424.773 13.4996C421.269 13.4996 418.44 10.7081 418.44 7.24975C418.44 3.7914 421.284 0.999957 424.773 0.999957Z" stroke="#D2E8EA" stroke-miterlimit="10"/>
<path d="M457.333 40.7345C457.333 37.2828 454.498 34.4846 451 34.4846C447.502 34.4846 444.667 37.2828 444.667 40.7345C444.667 44.1863 447.502 46.9844 451 46.9844C454.498 46.9844 457.333 44.1863 457.333 40.7345Z" fill="#F4F4F4"/>
<path d="M451 0.999957C454.489 0.999957 457.333 3.7914 457.333 7.24975C457.333 10.6926 454.504 13.4996 451 13.4996C447.511 13.4996 444.667 10.7081 444.667 7.24975C444.667 3.7914 447.496 0.999957 451 0.999957Z" stroke="#D2E8EA" stroke-miterlimit="10"/>
<path d="M477.227 34.5002C480.716 34.5002 483.56 37.2918 483.56 40.7502C483.56 44.193 480.731 47 477.227 47C473.739 47 470.894 44.2085 470.894 40.7502C470.894 37.2918 473.723 34.5002 477.227 34.5002Z" fill="#F4F4F4"/>
<path d="M477.227 0.999957C480.716 0.999957 483.56 3.7914 483.56 7.24975C483.56 10.6926 480.731 13.4996 477.227 13.4996C473.738 13.4996 470.894 10.7081 470.894 7.24975C470.894 3.7914 473.723 0.999957 477.227 0.999957Z" stroke="#D2E8EA" stroke-miterlimit="10"/>
<path d="M503.44 34.5002C506.928 34.5002 509.773 37.2918 509.773 40.7502C509.773 44.193 506.944 47 503.44 47C499.951 47 497.107 44.2085 497.107 40.7502C497.107 37.2918 499.951 34.5002 503.44 34.5002Z" fill="#D2E8EA"/>
<path d="M503.44 0.999957C506.929 0.999957 509.773 3.7914 509.773 7.24975C509.773 10.6926 506.944 13.4996 503.44 13.4996C499.951 13.4996 497.107 10.7081 497.107 7.24975C497.107 3.7914 499.951 0.999957 503.44 0.999957Z" stroke="#D2E8EA" stroke-miterlimit="10"/>
<path d="M529.667 34.5002C533.156 34.5002 536 37.2918 536 40.7502C536 44.193 533.171 47 529.667 47C526.178 47 523.334 44.2085 523.334 40.7502C523.334 37.2918 526.163 34.5002 529.667 34.5002Z" fill="#D2E8EA"/>
<path d="M529.667 0.999957C533.156 0.999957 536 3.7914 536 7.24975C536 10.6926 533.171 13.4996 529.667 13.4996C526.178 13.4996 523.334 10.7081 523.334 7.24975C523.334 3.7914 526.163 0.999957 529.667 0.999957Z" fill="#D2E8EA"/>
<path d="M38.114 431.016L25.5 442.996L38.114 454.977L50.728 442.996L38.114 431.016Z" fill="#F4F4F4"/>
<path d="M81.7031 431.003L69.1061 442.999L81.7031 454.995L94.3001 442.999L81.7031 431.003Z" fill="#D2E8EA"/>
<path d="M125.309 431.005L112.712 443.002L125.309 454.998L137.906 443.002L125.309 431.005Z" fill="#D2E8EA"/>
<path d="M168.903 431L156.306 442.996L168.903 454.993L181.5 442.996L168.903 431Z" fill="#F4F4F4"/>
<path d="M12.614 392.016L0 403.996L12.614 415.977L25.228 403.996L12.614 392.016Z" fill="#F4F4F4"/>
<path d="M56.2031 392.003L43.6061 403.999L56.2031 415.995L68.8001 403.999L56.2031 392.003Z" fill="#D2E8EA"/>
<path d="M99.8086 392.005L87.2115 404.002L99.8086 415.998L112.406 404.002L99.8086 392.005Z" fill="#D2E8EA"/>
<path d="M143.403 392L130.806 403.996L143.403 415.993L156 403.996L143.403 392Z" fill="#F4F4F4"/>
<path d="M521.707 341L327 341" stroke="#D2E8EA" stroke-width="2" stroke-miterlimit="10"/>
<path d="M546.149 358L327 358" stroke="#D2E8EA" stroke-width="2" stroke-miterlimit="10"/>
<path d="M570.576 375L327.002 375" stroke="#F4F4F4" stroke-width="2" stroke-miterlimit="10"/>
<path d="M595 392L327.001 392" stroke="#F4F4F4" stroke-width="2" stroke-miterlimit="10"/>
<path d="M490 273C508.772 273 524 257.996 524 239.5C524 221.004 508.772 206 490 206L490 273Z" fill="#D2E8EA"/>
</svg>
