<svg width="680" height="285" viewBox="0 0 680 285" fill="none" xmlns="http://www.w3.org/2000/svg">
<path d="M53.4434 174.866C55.8914 174.866 57.8759 172.881 57.8759 170.433C57.8759 167.985 55.8914 166 53.4434 166C50.9954 166 49.011 167.985 49.011 170.433C49.011 172.881 50.9954 174.866 53.4434 174.866Z" fill="#D2E8EA"/>
<path d="M81.6218 170.433C81.6218 172.875 79.6421 174.866 77.1894 174.866C74.7477 174.866 72.757 172.886 72.757 170.433C72.757 167.991 74.7367 166 77.1894 166C79.6421 166 81.6218 167.98 81.6218 170.433Z" fill="#D2E8EA"/>
<path d="M53.4434 193.214C55.8914 193.214 57.8759 191.229 57.8759 188.781C57.8759 186.333 55.8914 184.348 53.4434 184.348C50.9954 184.348 49.011 186.333 49.011 188.781C49.011 191.229 50.9954 193.214 53.4434 193.214Z" fill="#D2E8EA"/>
<path d="M81.6218 188.781C81.6218 191.223 79.6421 193.214 77.1894 193.214C74.7477 193.214 72.757 191.234 72.757 188.781C72.757 186.328 74.7367 184.348 77.1894 184.348C79.6421 184.359 81.6218 186.339 81.6218 188.781Z" stroke="#D2E8EA" stroke-miterlimit="10"/>
<path d="M53.4434 211.573C55.8914 211.573 57.8759 209.588 57.8759 207.14C57.8759 204.692 55.8914 202.707 53.4434 202.707C50.9954 202.707 49.011 204.692 49.011 207.14C49.011 209.588 50.9954 211.573 53.4434 211.573Z" fill="#F4F4F4"/>
<path d="M81.6218 207.14C81.6218 209.582 79.6421 211.573 77.1894 211.573C74.7477 211.573 72.757 209.593 72.757 207.14C72.757 204.687 74.7367 202.707 77.1894 202.707C79.6421 202.707 81.6218 204.698 81.6218 207.14Z" stroke="#D2E8EA" stroke-miterlimit="10"/>
<path d="M53.4434 229.932C55.8914 229.932 57.8759 227.947 57.8759 225.499C57.8759 223.051 55.8914 221.066 53.4434 221.066C50.9954 221.066 49.011 223.051 49.011 225.499C49.011 227.947 50.9954 229.932 53.4434 229.932Z" fill="#F4F4F4"/>
<path d="M81.6218 225.499C81.6218 227.941 79.6421 229.932 77.1894 229.932C74.7477 229.932 72.757 227.952 72.757 225.499C72.757 223.057 74.7367 221.066 77.1894 221.066C79.6421 221.066 81.6218 223.046 81.6218 225.499Z" stroke="#D2E8EA" stroke-miterlimit="10"/>
<path d="M57.8649 243.858C57.8649 246.3 55.8851 248.291 53.4324 248.291C50.9907 248.291 49 246.311 49 243.858C49 241.416 50.9797 239.425 53.4324 239.425C55.8851 239.425 57.8649 241.405 57.8649 243.858Z" fill="#F4F4F4"/>
<path d="M81.6218 243.858C81.6218 246.3 79.6421 248.291 77.1894 248.291C74.7477 248.291 72.757 246.311 72.757 243.858C72.757 241.416 74.7367 239.425 77.1894 239.425C79.6421 239.425 81.6218 241.405 81.6218 243.858Z" stroke="#D2E8EA" stroke-miterlimit="10"/>
<path d="M57.8649 262.206C57.8649 264.648 55.8851 266.639 53.4324 266.639C50.9907 266.639 49 264.659 49 262.206C49 259.764 50.9797 257.773 53.4324 257.773C55.8851 257.773 57.8649 259.764 57.8649 262.206Z" fill="#D2E8EA"/>
<path d="M81.6218 262.206C81.6218 264.648 79.6421 266.639 77.1894 266.639C74.7477 266.639 72.757 264.659 72.757 262.206C72.757 259.764 74.7367 257.773 77.1894 257.773C79.6421 257.773 81.6218 259.764 81.6218 262.206Z" stroke="#D2E8EA" stroke-miterlimit="10"/>
<path d="M57.8649 280.565C57.8649 283.007 55.8851 284.998 53.4324 284.998C50.9907 284.998 49 283.018 49 280.565C49 278.123 50.9797 276.132 53.4324 276.132C55.8851 276.132 57.8649 278.112 57.8649 280.565Z" fill="#D2E8EA"/>
<path d="M81.6218 280.565C81.6218 283.007 79.6421 284.998 77.1894 284.998C74.7477 284.998 72.757 283.018 72.757 280.565C72.757 278.123 74.7367 276.132 77.1894 276.132C79.6421 276.132 81.6218 278.112 81.6218 280.565Z" fill="#D2E8EA"/>
<path d="M7.97253 75.3912L0 83.3628L7.97253 91.3343L15.9451 83.3628L7.97253 75.3912Z" fill="#F4F4F4"/>
<path d="M35.5703 75.3937L27.5978 83.3652L35.5703 91.3368L43.5428 83.3652L35.5703 75.3937Z" fill="#D2E8EA"/>
<path d="M63.168 75.3961L55.1954 83.3677L63.168 91.3392L71.1405 83.3677L63.168 75.3961Z" fill="#D2E8EA"/>
<path d="M90.7581 75.3907L82.7855 83.3623L90.7581 91.3339L98.7306 83.3623L90.7581 75.3907Z" fill="#F4F4F4"/>
<path d="M565 244C565 255.595 577.092 265 592 265C606.908 265 619 255.595 619 244L565 244Z" fill="#D2E8EA"/>
<path d="M65 57C65 40.4314 78.4315 27 95 27L680 27.0001L680 239L95 239C78.4314 239 65 225.568 65 209L65 57Z" fill="#FAFAFA"/>
<path d="M571 0L571 54L582 54L582 4.80825e-07L571 0Z" fill="#EEEEEE"/>
<path d="M592 0L592 54L603 54L603 4.80825e-07L592 0Z" fill="#D2E8EA"/>
</svg>
