<svg width="24" height="24" viewBox="0 0 24 24" fill="none" xmlns="http://www.w3.org/2000/svg">
<path d="M17.2189 8.60918C14.7625 7.20573 10.8199 4.95211 4.70471 1.45438C4.29242 1.17624 3.81806 1.13979 3.4082 1.2815L13.9002 11.9992L17.2189 8.60918Z" fill="#32BBFF"/>
<path d="M3.40826 1.28146C3.33144 1.30804 3.25669 1.3401 3.1852 1.37883C2.73261 1.62892 2.40002 2.11015 2.40002 2.71879V21.2796C2.40002 21.8883 2.73256 22.3695 3.1852 22.6196C3.25657 22.6582 3.33128 22.6904 3.40801 22.7172L13.9003 11.9992L3.40826 1.28146Z" fill="#32BBFF"/>
<path d="M13.9004 11.9993L3.40808 22.7172C3.81806 22.86 4.29242 22.8263 4.70483 22.5441C10.6353 19.1518 14.5334 16.9249 17.0182 15.5095C17.0874 15.4698 17.1552 15.431 17.2222 15.3926L13.9004 11.9993Z" fill="#32BBFF"/>
<path d="M2.40002 11.9992V21.2796C2.40002 21.8883 2.73256 22.3695 3.1852 22.6196C3.25657 22.6582 3.33128 22.6904 3.40801 22.7172L13.9003 11.9992H2.40002Z" fill="#2C9FD9"/>
<path d="M4.70474 1.4543C4.21514 1.12406 3.63778 1.13346 3.18518 1.37883L13.741 12.1618L17.2189 8.6091C14.7626 7.20565 10.82 4.95203 4.70474 1.4543Z" fill="#29CC5E"/>
<path d="M13.7411 11.8365L3.18518 22.6194C3.63782 22.8647 4.21514 22.8789 4.70474 22.5439C10.6352 19.1517 14.5333 16.9247 17.0181 15.5094C17.0873 15.4697 17.1551 15.4308 17.2221 15.3924L13.7411 11.8365Z" fill="#D93F21"/>
<path d="M21.6 11.9992C21.6 11.4849 21.346 10.9659 20.8425 10.6781C20.8425 10.6781 19.9009 10.1415 17.0148 8.49243L13.5819 11.9992L17.0182 15.5094C19.8726 13.8722 20.8425 13.3202 20.8425 13.3202C21.346 13.0324 21.6 12.5135 21.6 11.9992Z" fill="#FFD500"/>
<path d="M20.8425 13.3203C21.346 13.0325 21.6 12.5135 21.6 11.9993H13.5819L17.0182 15.5095C19.8726 13.8724 20.8425 13.3203 20.8425 13.3203Z" fill="#FFAA00"/>
</svg>
