<svg width="34" height="34" viewBox="0 0 34 34" fill="none" xmlns="http://www.w3.org/2000/svg">
<g clip-path="url(#clip0_2484_34644)">
<path d="M16.9291 21.7471C15.3704 21.7471 14.0951 23.0224 14.0951 24.5811V30.3199C14.0951 31.8786 15.3704 33.154 16.9291 33.154C18.4878 33.154 19.7631 31.8786 19.7631 30.3199V24.5811C19.7631 23.0224 18.4879 21.7471 16.9291 21.7471Z" fill="#39AAB4"/>
<path d="M27.2024 4.3887H21.7469C21.1093 2.33405 19.1964 0.846191 16.9291 0.846191C14.6619 0.846191 12.749 2.33405 12.1113 4.3887H6.7267C5.94734 4.3887 5.30969 5.02635 5.30969 5.80571C5.30969 6.58506 5.94734 7.22271 6.7267 7.22271H12.1822C12.5364 8.42716 13.3158 9.41907 14.3785 10.0567C10.5526 11.1903 7.7186 14.7328 7.7186 18.913V26.3523C7.7186 27.6276 8.78135 28.6903 10.0567 28.6903H11.9696V24.6519C11.9696 21.8886 14.2368 19.6215 17 19.6215C19.7631 19.6215 22.0303 21.8887 22.0303 24.6519V28.6903H23.9433C25.2186 28.6903 26.2814 27.6276 26.2814 26.3523V18.9838C26.2814 14.8036 23.4473 11.1903 19.6214 10.1276C20.6841 9.48992 21.4635 8.49801 21.8177 7.29356H27.2732C28.0526 7.29356 28.6902 6.65591 28.6902 5.87656C28.6194 5.02635 27.9818 4.3887 27.2024 4.3887ZM16.9291 8.71056C15.3704 8.71056 14.0951 7.43526 14.0951 5.87656C14.0951 4.31785 15.3704 3.04255 16.9291 3.04255C18.4878 3.04255 19.7631 4.31785 19.7631 5.87656C19.834 7.43526 18.5587 8.71056 16.9291 8.71056Z" fill="#39AAB4"/>
</g>
<defs>
<clipPath id="clip0_2484_34644">
<rect width="32.3077" height="32.3077" fill="white" transform="translate(0.846191 0.846191)"/>
</clipPath>
</defs>
</svg>
